<?xml version="1.0" encoding="UTF-8"?>
<mxfile host="" modified="2025-05-04T07:52:09.628Z" agent="5.0 (Macintosh; Intel Mac OS X 10_15_7) AppleWebKit/537.36 (KHTML, like Gecko) draw.io/18.1.4 Chrome/124.0.0.0 Safari/537.36" version="18.1.4" type="device">
  <diagram name="Page-1" id="1">
    <mxGraphModel dx="1180" dy="808" grid="1" gridSize="10" guides="1" tooltips="1" connect="1" arrows="1" fold="1" page="1" pageScale="1" pageWidth="827" pageHeight="1169" math="0" shadow="0">
      <root>
        <mxCell id="0"/>
        <mxCell id="1" parent="0"/>
        <mxCell id="2" value="Smart Contract" style="rounded=1;whiteSpace=wrap;html=1;fillColor=#f9f9f9;strokeColor=#333333;" vertex="1" parent="1">
          <mxGeometry x="100" y="100" width="120" height="40" as="geometry"/>
        </mxCell>
        <mxCell id="3" value="HealthCoin" style="rounded=1;whiteSpace=wrap;html=1;fillColor=#bbf;strokeColor=#333333;" vertex="1" parent="1">
          <mxGeometry x="250" y="100" width="120" height="40" as="geometry"/>
        </mxCell>
        <mxCell id="4" value="Profile Manager" style="rounded=1;whiteSpace=wrap;html=1;fillColor=#bbf;strokeColor=#333333;" vertex="1" parent="1">
          <mxGeometry x="400" y="100" width="140" height="40" as="geometry"/>
        </mxCell>
        <mxCell id="5" value="Achievement Tracker" style="rounded=1;whiteSpace=wrap;html=1;fillColor=#bbf;strokeColor=#333333;" vertex="1" parent="1">
          <mxGeometry x="550" y="100" width="160" height="40" as="geometry"/>
        </mxCell>
        <mxCell id="6" value="NFT Manager" style="rounded=1;whiteSpace=wrap;html=1;fillColor=#bbf;strokeColor=#333333;" vertex="1" parent="1">
          <mxGeometry x="710" y="100" width="120" height="40" as="geometry"/>
        </mxCell>
        <mxCell id="7" value="Frontend" style="rounded=1;whiteSpace=wrap;html=1;fillColor=#bfb;strokeColor=#333333;" vertex="1" parent="1">
          <mxGeometry x="100" y="150" width="120" height="40" as="geometry"/>
        </mxCell>
        <mxCell id="8" value="Mobile" style="rounded=1;whiteSpace=wrap;html=1;fillColor=#bfb;strokeColor=#333333;" vertex="1" parent="1">
          <mxGeometry x="100" y="200" width="120" height="40" as="geometry"/>
        </mxCell>
        <mxCell id="9" value="API" style="rounded=1;whiteSpace=wrap;html=1;fillColor=#bfb;strokeColor=#333333;" vertex="1" parent="1">
          <mxGeometry x="100" y="250" width="120" height="40" as="geometry"/>
        </mxCell>
        <mxCell id="10" style="edgeStyle=orthogonalEdgeStyle;rounded=0;orthogonalLoop=1;jettySize=auto;html=1;" edge="1" parent="1" source="2" target="3">
          <mxGeometry relative="1" as="geometry"/>
        </mxCell>
        <mxCell id="11" style="edgeStyle=orthogonalEdgeStyle;rounded=0;orthogonalLoop=1;jettySize=auto;html=1;" edge="1" parent="1" source="2" target="4">
          <mxGeometry relative="1" as="geometry"/>
        </mxCell>
        <mxCell id="12" style="edgeStyle=orthogonalEdgeStyle;rounded=0;orthogonalLoop=1;jettySize=auto;html=1;" edge="1" parent="1" source="2" target="5">
          <mxGeometry relative="1" as="geometry"/>
        </mxCell>
        <mxCell id="13" style="edgeStyle=orthogonalEdgeStyle;rounded=0;orthogonalLoop=1;jettySize=auto;html=1;" edge="1" parent="1" source="2" target="6">
          <mxGeometry relative="1" as="geometry"/>
        </mxCell>
        <mxCell id="14" style="edgeStyle=orthogonalEdgeStyle;rounded=0;orthogonalLoop=1;jettySize=auto;html=1;" edge="1" parent="1" source="7" target="2">
          <mxGeometry relative="1" as="geometry"/>
        </mxCell>
        <mxCell id="15" style="edgeStyle=orthogonalEdgeStyle;rounded=0;orthogonalLoop=1;jettySize=auto;html=1;" edge="1" parent="1" source="8" target="2">
          <mxGeometry relative="1" as="geometry"/>
        </mxCell>
        <mxCell id="16" style="edgeStyle=orthogonalEdgeStyle;rounded=0;orthogonalLoop=1;jettySize=auto;html=1;" edge="1" parent="1" source="9" target="2">
          <mxGeometry relative="1" as="geometry"/>
        </mxCell>
      </root>
    </mxGraphModel>
  </diagram>
</mxfile>
